<svg xmlns="http://www.w3.org/2000/svg" width="600" height="81" fill="none"><path fill="url(#a)" fill-rule="evenodd" d="M13.922 14.238c-.751-3.145.777-6.08 2.37-8.46C18.043 3.158 20.971.836 24.243 0c-.593 2.969-2.322 5.53-3.988 7.939-1.654 2.393-3.74 4.816-6.334 6.3Zm2.87.376c-2.2 1.01-4.222 3.178-5.146 5.663.583-2.492.567-5.22.008-7.558-.49-2.054-1.207-4.956-3.554-5.935-1.703 2.737-2.385 6.463-1.387 9.252.72 2.019 2.016 4.688 4.697 5.098 2.46.565 4.945-.749 6.907-1.833 2.182-1.206 4.319-3.123 5.616-5.402-2.384-1.2-5.097-.223-7.14.715Zm-3.221 9.254c-1.89 1.348-3.341 3.813-3.653 6.343-.027-2.535-.717-5.153-1.825-7.261-1.013-1.93-2.427-4.536-4.943-5.056-.987 3.004-.668 6.677.93 9.108 1.209 1.842 3.08 4.148 5.803 4.086 2.485.127 4.63-1.57 6.32-2.987 1.817-1.523 3.455-3.75 4.145-6.157-2.538-.737-4.966.633-6.777 1.924Zm-.916 9.485c-1.545 1.656-2.374 4.336-2.097 6.816-.618-2.489-1.906-4.901-3.479-6.734-1.458-1.7-3.43-3.946-6.033-4.01-.246 3.155.986 6.307 3.052 8.655 1.608 1.824 4.081 3.375 6.615 2.946 2.436-.297 4.298-2.363 5.506-4.034 1.298-1.793 2.555-4.188 2.607-6.7-2.597-.277-4.683 1.464-6.17 3.06Zm1.592 9.073c-1.232 2.449-1.466 5.362-.515 7.927-1.402-2.64-3.453-4.773-5.624-6.745-1.974-1.793-4.817-3.68-7.678-3.322.546 3.537 2.71 7.206 5.61 9.091 2.333 1.515 5.159 3.015 8.128 1.882 2.442-.861 3.994-3.321 4.947-5.579 1.009-2.388 1.68-5.141 1.21-7.754-2.678.24-4.9 2.159-6.078 4.5Zm3.718 9.281a10.54 10.54 0 0 0 1.457 8.084c-2.063-2.361-4.806-4.31-7.432-5.677-2.54-1.321-5.654-2.914-8.7-1.949 1.472 3.586 4.62 6.923 8.105 8.302 2.702 1.07 5.993 2.126 8.811.339 2.282-1.377 3.2-4.258 3.576-6.727.402-2.669.383-5.611-.727-8.141-2.663.746-4.49 3.144-5.09 5.77Zm13.108 10.025c.338 2.574.333 5.84-1.666 7.824-2.495 2.56-6.363 2.069-9.346 1.508-4.005-.753-8.514-3.48-10.933-7.114 2.948-1.627 6.558-.59 9.479.248l.169.048c3.26.935 6.734 2.443 9.641 4.504-2.32-2.094-4.011-5.166-4.096-8.265-.078-2.772 1.123-5.739 3.71-7.063 1.812 2.372 2.66 5.418 3.042 8.31Zm11.62 15.11c-1.79 3.305-6.18 3.687-9.38 3.755-4.776.1-10.196-1.767-14.013-5.007 2.52-2.318 6.641-2.053 9.808-1.85l.401.026c3.941.248 8.084 1.094 11.879 2.505-3.277-1.594-6.442-4.395-7.358-7.683-.77-2.764-1.02-5.946 1.56-8.172 2.69 2.102 4.57 5.03 5.947 7.903 1.158 2.417 2.61 5.683 1.181 8.477l-.025.045Z" clip-rule="evenodd"/><path fill="#5D778D" d="M81.77 27.26c0 3-2.4 5.28-6.575 5.28-4.152 0-6.672-2.28-6.888-5.712h2.688c.12 2.184 1.512 3.6 4.152 3.6 2.184 0 3.816-1.032 3.816-2.808 0-1.44-.936-2.16-2.928-2.592l-2.496-.48c-2.424-.48-4.632-1.704-4.632-4.632 0-2.904 2.544-5.088 6.12-5.088s6.288 2.184 6.504 5.616h-2.688c-.144-2.064-1.632-3.504-3.792-3.504-2.232 0-3.456 1.32-3.456 2.808 0 1.632 1.416 2.208 3.024 2.544l2.544.504c2.952.6 4.608 1.896 4.608 4.464Zm5.29-2.136V32.3h-2.425V15.068h2.424v6.552c.84-1.368 2.136-2.28 3.888-2.28 2.616 0 4.344 1.68 4.344 4.728V32.3h-2.424v-7.416c0-2.184-.96-3.408-2.76-3.408-1.656 0-3.048 1.392-3.048 3.648Zm16.778 7.416c-3.6 0-6.24-2.832-6.24-6.6s2.64-6.6 6.24-6.6 6.24 2.832 6.24 6.6-2.64 6.6-6.24 6.6Zm0-2.136c2.088 0 3.744-1.68 3.744-4.464 0-2.784-1.656-4.44-3.744-4.44s-3.72 1.656-3.72 4.44c0 2.784 1.632 4.464 3.72 4.464ZM122.78 32.3l-2.88-9.456-2.904 9.456h-2.448l-3.672-12.72h2.376l2.568 9.264 2.88-9.264h2.4l2.832 9.288 2.568-9.288h2.4l-3.696 12.72h-2.424Zm10.521-7.176V32.3h-2.424V19.58h2.256v2.112c.864-1.416 2.304-2.352 4.056-2.352 2.616 0 4.344 1.68 4.344 4.728V32.3h-2.424v-7.416c0-2.184-.96-3.408-2.76-3.408-1.656 0-3.048 1.392-3.048 3.648Zm19.419-8.496c0 .912-.72 1.608-1.752 1.608s-1.776-.696-1.776-1.608c0-.936.744-1.608 1.776-1.608s1.752.672 1.752 1.608Zm-.528 15.672h-2.424V19.58h2.424V32.3Zm13.445-3.792c0 2.496-1.944 4.032-5.328 4.032-3.36 0-5.352-1.656-5.592-4.392h2.328c.096 1.584 1.368 2.568 3.312 2.568 1.704 0 2.832-.6 2.832-1.8 0-1.056-.648-1.512-2.232-1.824l-2.064-.384c-2.352-.456-3.672-1.656-3.672-3.576 0-2.232 1.944-3.792 4.896-3.792 3.048 0 5.112 1.632 5.328 4.248h-2.328c-.144-1.536-1.272-2.424-2.976-2.424-1.536 0-2.568.648-2.568 1.752 0 1.032.648 1.512 2.184 1.8l2.16.408c2.52.456 3.72 1.56 3.72 3.384Zm10.086-2.712V32.3h-2.424V19.58h2.256v2.688c.888-1.752 2.808-2.856 4.896-2.856v2.52c-2.736-.144-4.728 1.056-4.728 3.864Zm14.35 6.504v-1.968c-.792 1.416-2.208 2.208-4.08 2.208-2.64 0-4.368-1.512-4.368-3.84 0-2.496 1.992-3.792 5.784-3.792.744 0 1.344.024 2.376.144v-.936c0-1.824-.984-2.856-2.664-2.856-1.776 0-2.856 1.056-2.928 2.832h-2.208c.12-2.856 2.16-4.752 5.136-4.752 3.144 0 4.968 1.776 4.968 4.8v8.16h-2.016Zm-6.144-3.672c0 1.32.984 2.184 2.544 2.184 2.04 0 3.312-1.272 3.312-3.216v-1.032a16.559 16.559 0 0 0-2.232-.144c-2.424 0-3.624.72-3.624 2.208Zm18.46 1.32v2.136a4.93 4.93 0 0 1-2.16.456c-2.352 0-3.984-1.272-3.984-4.08v-6.816h-2.808V19.58h2.808v-3.768h2.424v3.768h3.84v2.064h-3.84v6.264c0 1.752.84 2.376 2.136 2.376.576 0 1.08-.096 1.584-.336Zm7.314 2.592c-3.672 0-6.144-2.664-6.144-6.672 0-3.768 2.568-6.528 6.072-6.528 3.792 0 6.312 3.072 5.88 7.2h-9.48c.192 2.592 1.488 4.104 3.624 4.104 1.8 0 3.048-.984 3.456-2.64h2.4c-.624 2.832-2.808 4.536-5.808 4.536Zm-.12-11.376c-1.944 0-3.264 1.392-3.528 3.768h6.888c-.12-2.352-1.392-3.768-3.36-3.768Zm7.359 4.776c0-3.864 2.208-6.6 5.64-6.6 1.704 0 3.192.864 4.08 2.424v-6.696h2.424V32.3h-2.256v-2.28c-.912 1.608-2.448 2.52-4.248 2.52-3.432 0-5.64-2.784-5.64-6.6Zm2.52 0c0 2.832 1.488 4.44 3.6 4.44 2.064 0 3.6-1.68 3.6-4.488 0-2.856-1.584-4.416-3.6-4.416-2.112 0-3.6 1.584-3.6 4.464Z"/><path fill="url(#b)" d="M80.09 63.996V66.3H69.17V49.068h10.753v2.304H71.81v4.896h7.392v2.304H71.81v5.424h8.28Zm4.224 2.304H81.58l4.512-6.504-4.224-6.216h2.807l3.144 4.8 3.145-4.8h2.616l-4.176 6.288 4.463 6.432h-2.784l-3.407-5.064-3.36 5.064Zm15.978.264c-3.48 0-5.928-2.736-5.928-6.624 0-3.84 2.496-6.6 5.928-6.6 3.144 0 5.424 2.088 5.88 5.4h-2.544c-.264-2.04-1.536-3.264-3.312-3.264-2.088 0-3.456 1.776-3.456 4.464 0 2.712 1.368 4.464 3.456 4.464 1.8 0 3.048-1.2 3.336-3.264h2.52c-.432 3.36-2.688 5.424-5.88 5.424Zm13.434-.024c-3.672 0-6.144-2.664-6.144-6.672 0-3.768 2.568-6.528 6.072-6.528 3.792 0 6.312 3.072 5.88 7.2h-9.48c.192 2.592 1.488 4.104 3.624 4.104 1.8 0 3.048-.984 3.456-2.64h2.4c-.624 2.832-2.808 4.536-5.808 4.536Zm-.12-11.376c-1.944 0-3.264 1.392-3.528 3.768h6.888c-.12-2.352-1.392-3.768-3.36-3.768ZM124.56 66.3h-2.448V49.068h2.448V66.3Zm5.812 0h-2.448V49.068h2.448V66.3Zm8.597.24c-3.672 0-6.144-2.664-6.144-6.672 0-3.768 2.568-6.528 6.072-6.528 3.792 0 6.312 3.072 5.88 7.2h-9.48c.192 2.592 1.488 4.104 3.624 4.104 1.8 0 3.048-.984 3.456-2.64h2.4c-.624 2.832-2.808 4.536-5.808 4.536Zm-.12-11.376c-1.944 0-3.264 1.392-3.528 3.768h6.888c-.12-2.352-1.392-3.768-3.36-3.768Zm10.929 3.96V66.3h-2.424V53.58h2.256v2.112c.864-1.416 2.304-2.352 4.056-2.352 2.616 0 4.344 1.68 4.344 4.728V66.3h-2.424v-7.416c0-2.184-.96-3.408-2.76-3.408-1.656 0-3.048 1.392-3.048 3.648Zm18.58 4.824v2.136a4.93 4.93 0 0 1-2.16.456c-2.352 0-3.984-1.272-3.984-4.08v-6.816h-2.808V53.58h2.808v-3.768h2.424v3.768h3.84v2.064h-3.84v6.264c0 1.752.84 2.376 2.136 2.376.576 0 1.08-.096 1.584-.336Z"/><g clip-path="url(#c)"><path fill="#00B67A" d="M252.297 10.616a6.805 6.805 0 0 1 6.805-6.805h16.374a6.805 6.805 0 0 1 6.805 6.805V26.99a6.805 6.805 0 0 1-6.805 6.805h-16.374a6.805 6.805 0 0 1-6.805-6.805V10.616Zm32.483 0a6.805 6.805 0 0 1 6.805-6.805h16.375a6.805 6.805 0 0 1 6.805 6.805V26.99a6.805 6.805 0 0 1-6.805 6.805h-16.375a6.805 6.805 0 0 1-6.805-6.805V10.616Zm32.483 0a6.805 6.805 0 0 1 6.805-6.805h16.375a6.805 6.805 0 0 1 6.805 6.805V26.99a6.805 6.805 0 0 1-6.805 6.805h-16.375a6.805 6.805 0 0 1-6.805-6.805V10.616Zm32.484 0a6.805 6.805 0 0 1 6.805-6.805h16.374a6.805 6.805 0 0 1 6.805 6.805V26.99a6.805 6.805 0 0 1-6.805 6.805h-16.374a6.805 6.805 0 0 1-6.805-6.805V10.616Z"/><mask id="d" width="31" height="31" x="382" y="3" maskUnits="userSpaceOnUse" style="mask-type:alpha"><path fill="#00B67A" d="M405.41 3.806h-16.375a6.805 6.805 0 0 0-6.805 6.805v16.374a6.805 6.805 0 0 0 6.805 6.805h16.375a6.805 6.805 0 0 0 6.805-6.805V10.611a6.805 6.805 0 0 0-6.805-6.805Z"/></mask><g mask="url(#d)"><path fill="#00B67A" d="M405.41 3.806h-16.375a6.805 6.805 0 0 0-6.805 6.805v16.374a6.805 6.805 0 0 0 6.805 6.805h16.375a6.805 6.805 0 0 0 6.805-6.805V10.611a6.805 6.805 0 0 0-6.805-6.805Z"/><path fill="#394C5E" d="M412.216 3.8h-14.46V34.42h14.46V3.8Z"/></g><path fill="#fff" d="m267.288 24.017 4.56-1.155 1.905 5.872-6.465-4.717Zm10.494-7.59h-8.027l-2.467-7.558-2.468 7.559h-8.027l6.497 4.685-2.468 7.558 6.497-4.685 3.998-2.873 6.465-4.685Zm21.989 7.59 4.56-1.155 1.905 5.872-6.465-4.717Zm10.494-7.59h-8.027l-2.467-7.558-2.468 7.559h-8.027l6.497 4.685-2.468 7.558 6.497-4.685 3.998-2.873 6.465-4.685Zm21.989 7.59 4.56-1.155 1.905 5.872-6.465-4.717Zm10.495-7.59h-8.027l-2.468-7.558-2.467 7.559h-8.028l6.497 4.685-2.467 7.558 6.496-4.685 3.998-2.873 6.466-4.685Zm21.988 7.59 4.56-1.155 1.906 5.872-6.466-4.717Zm10.495-7.59h-8.027l-2.468-7.558-2.467 7.559h-8.027l6.496 4.685-2.467 7.558 6.497-4.685 3.997-2.873 6.466-4.685Zm21.989 7.59 4.56-1.155 1.905 5.872-6.465-4.717Zm10.494-7.59h-8.027l-2.467-7.558-2.468 7.559h-8.027l6.497 4.685-2.468 7.558 6.497-4.685 3.998-2.873 6.465-4.685Z"/></g><path fill="#5D778D" d="M255.722 68.8h-1.5V54.44h5.12c3.04 0 4.94 1.58 4.94 4.34 0 2.16-1.42 3.78-3.68 4.16l4.06 5.86h-1.8l-3.86-5.68h-3.28v5.68Zm0-13.1v6.16h3.5c2.2 0 3.56-1.08 3.56-3.08s-1.36-3.08-3.56-3.08h-3.5Zm17.341 13.1v-1.92c-.62 1.32-1.9 2.12-3.54 2.12-2.18 0-3.6-1.22-3.6-3.12 0-2.06 1.639-3.14 4.84-3.14.64 0 1.12.04 2.16.12v-.88c0-1.76-.94-2.8-2.54-2.8-1.72 0-2.8 1.06-2.821 2.78h-1.279c.06-2.34 1.68-3.9 4.08-3.9 2.46 0 3.9 1.44 3.9 3.88v6.86h-1.2Zm-5.8-2.96c0 1.28.98 2.14 2.46 2.14 1.96 0 3.2-1.28 3.2-3.26v-.94c-.9-.08-1.52-.1-2.1-.1-2.4 0-3.56.7-3.56 2.16Zm15.306 1.62v1.24c-.54.22-1 .3-1.52.3-1.74 0-3.08-.9-3.08-3.18v-6.38h-2.48v-1.18h2.48v-3.12h1.4v3.12h3.3v1.18h-3.3v6.08c0 1.64.8 2.2 1.96 2.2.44 0 .8-.08 1.24-.26Zm6.025 1.54c-2.96 0-4.92-2.22-4.92-5.56 0-3.08 2.04-5.38 4.84-5.38 3 0 4.96 2.42 4.72 5.8h-8.16c.12 2.5 1.44 4.04 3.5 4.04 1.76 0 2.98-.98 3.32-2.66h1.38c-.48 2.34-2.26 3.76-4.68 3.76Zm-.1-9.86c-1.9 0-3.24 1.46-3.42 3.76h6.7c-.12-2.36-1.34-3.76-3.28-3.76Zm6.078 4.38c0-3.24 1.8-5.46 4.64-5.46 1.58 0 2.92.9 3.62 2.4v-6.02h1.4V68.8h-1.3v-2.22c-.74 1.54-2.1 2.42-3.72 2.42-2.84 0-4.64-2.24-4.64-5.48Zm1.42 0c0 2.68 1.36 4.26 3.42 4.26 2.04 0 3.44-1.66 3.44-4.3 0-2.66-1.44-4.2-3.44-4.2-2.06 0-3.42 1.56-3.42 4.24Zm24.294 2.06h-1.82v3.22h-1.38v-3.22h-6.58v-.94l6.98-9.36h.98v9.08h1.82v1.22Zm-8.16-1.22h4.96v-6.8l-4.96 6.8Zm12.616 3.28c0 .72-.52 1.26-1.26 1.26-.72 0-1.26-.54-1.26-1.26 0-.76.54-1.28 1.26-1.28.74 0 1.26.52 1.26 1.28Zm6.422 1.36c-2.46 0-4.34-1.66-4.42-3.96h1.36c.12 1.66 1.36 2.72 3.06 2.72 2.06 0 3.24-1.28 3.24-3.18 0-1.7-1.28-3.06-3.2-3.06-1.3 0-2.3.56-2.96 1.6l-1.08-.32 1.18-7.52h6.72v1.22h-5.72l-.74 4.88c.82-.74 1.74-1.06 2.78-1.06 2.76 0 4.44 1.92 4.44 4.24 0 2.54-1.76 4.44-4.66 4.44Zm15.22 3.66h-1.32c-1.64-2.5-2.54-5.8-2.54-9.12 0-3.3.9-6.6 2.54-9.1h1.32c-1.66 2.5-2.46 5.8-2.46 9.1 0 3.32.8 6.62 2.46 9.12Zm5.974-17.56c2.7 0 4.7 1.94 4.7 4.42 0 1.66-.66 2.7-1.8 4.14l-4.06 5.14h-1.6l4.06-5.16c-.54.22-1.1.3-1.6.3-2.52 0-4.42-1.74-4.42-4.38 0-2.52 2-4.46 4.72-4.46Zm-.02 1.16c-1.9 0-3.26 1.38-3.26 3.26 0 2.02 1.36 3.36 3.26 3.36 1.86 0 3.28-1.16 3.28-3.32 0-1.92-1.42-3.3-3.28-3.3Zm10.787 12.72c-2.68 0-4.52-1.58-4.58-3.92h1.36c.08 1.7 1.34 2.78 3.22 2.78 1.94 0 3.12-1.06 3.12-2.76 0-1.62-1.32-2.66-3.4-2.66h-1.34v-1.16h1.3c1.66 0 2.82-1.06 2.82-2.58 0-1.46-1.08-2.46-2.62-2.46-1.6 0-2.66 1-2.74 2.56h-1.34c.06-2.12 1.82-3.7 4.12-3.7 2.4 0 4.02 1.46 4.02 3.54 0 1.4-.84 2.52-2.32 3.14 1.86.46 2.94 1.66 2.94 3.3 0 2.32-1.84 3.92-4.56 3.92Zm7.606 3.68h-1.32c1.64-2.5 2.46-5.8 2.46-9.12 0-3.3-.82-6.6-2.46-9.1h1.32c1.64 2.5 2.54 5.8 2.54 9.1 0 3.32-.9 6.62-2.54 9.12ZM384.885 69c-2.9 0-5-2.3-5-5.48 0-3.16 2.1-5.44 5-5.44 2.92 0 5.02 2.28 5.02 5.44 0 3.18-2.1 5.48-5.02 5.48Zm0-1.22c2.06 0 3.6-1.64 3.6-4.26 0-2.58-1.54-4.22-3.6-4.22-2.04 0-3.58 1.64-3.58 4.22 0 2.62 1.54 4.26 3.58 4.26Zm8.683-5.12v6.14h-1.4V58.26h1.3v1.98c.68-1.3 1.96-2.18 3.48-2.18 2.2 0 3.62 1.4 3.62 3.9v6.84h-1.4v-6.36c0-2.02-.92-3.16-2.64-3.16-1.64 0-2.96 1.42-2.96 3.38Z"/><g clip-path="url(#e)"><path fill="#394C5E" d="M442.762 54.176h12.294v2.29h-4.84v12.9h-2.654v-12.9h-4.82l.02-2.29Zm11.768 4.193h2.268v2.127h.04c.082-.304.223-.588.426-.871a3.35 3.35 0 0 1 .749-.77c.284-.243.608-.425.972-.567a2.833 2.833 0 0 1 1.074-.223c.283 0 .486.02.587.02.101.02.223.04.324.04v2.33a4.088 4.088 0 0 0-.526-.081c-.183-.02-.345-.04-.527-.04-.405 0-.79.08-1.154.242-.365.163-.669.406-.952.71a3.824 3.824 0 0 0-.648 1.174c-.162.466-.243 1.013-.243 1.62v5.226h-2.431l.041-10.937Zm17.579 10.997h-2.389v-1.539h-.041c-.304.567-.749.993-1.337 1.337a3.527 3.527 0 0 1-1.802.506c-1.438 0-2.491-.344-3.139-1.073-.649-.71-.973-1.803-.973-3.24v-6.988h2.431v6.744c0 .972.182 1.661.567 2.046.364.405.891.607 1.559.607.507 0 .932-.08 1.276-.243.345-.162.628-.364.831-.627.223-.264.364-.588.466-.952.101-.365.141-.77.141-1.195v-6.38h2.431v10.997h-.021Zm4.132-3.524c.081.71.344 1.195.81 1.5.466.283 1.033.424 1.681.424.223 0 .486-.02.77-.06.283-.04.567-.102.81-.203.263-.101.466-.243.628-.445.162-.203.243-.446.223-.75-.021-.304-.122-.567-.345-.77-.222-.202-.486-.344-.81-.486a7.02 7.02 0 0 0-1.134-.303c-.425-.081-.851-.183-1.296-.284a14.037 14.037 0 0 1-1.317-.364 3.785 3.785 0 0 1-1.134-.588 2.533 2.533 0 0 1-.79-.931c-.202-.385-.303-.83-.303-1.398 0-.607.141-1.094.445-1.499a3.23 3.23 0 0 1 1.114-.972 5.062 5.062 0 0 1 1.499-.526 8.583 8.583 0 0 1 1.559-.142c.567 0 1.114.06 1.621.182.506.122.992.304 1.397.588.425.263.77.627 1.033 1.053.284.425.446.951.527 1.56h-2.532c-.122-.588-.385-.973-.79-1.175-.425-.203-.891-.304-1.438-.304-.162 0-.385.02-.608.04-.243.04-.445.081-.668.162a1.593 1.593 0 0 0-.527.344.813.813 0 0 0-.222.588c0 .304.101.526.303.709.203.182.466.324.811.465.324.122.708.223 1.134.304.425.081.871.183 1.316.284.446.101.871.223 1.296.364.426.142.811.324 1.135.588.324.243.607.547.81.911.202.365.304.83.304 1.357 0 .648-.142 1.195-.446 1.66-.304.446-.689.831-1.154 1.115-.466.283-1.013.486-1.58.628-.588.121-1.155.202-1.722.202a7.257 7.257 0 0 1-1.924-.243 4.898 4.898 0 0 1-1.539-.709 3.404 3.404 0 0 1-1.013-1.195c-.243-.465-.384-1.033-.405-1.7h2.451v.02h.02Zm8-7.473h1.843v-3.322h2.431v3.302h2.187v1.802h-2.187v5.874c0 .263.02.465.04.668.02.182.081.344.142.466a.789.789 0 0 0 .344.283c.162.061.365.102.648.102.162 0 .345 0 .507-.02.162-.02.344-.041.506-.082v1.884c-.263.04-.527.06-.79.08-.263.041-.506.041-.79.041-.648 0-1.154-.06-1.539-.182a2.203 2.203 0 0 1-.911-.526 1.88 1.88 0 0 1-.446-.871c-.081-.345-.121-.77-.142-1.215V60.17h-1.843v-1.843.04Zm8.162 0h2.289v1.499h.04c.345-.649.811-1.094 1.418-1.378a4.595 4.595 0 0 1 1.985-.425c.871 0 1.62.142 2.268.466a4.255 4.255 0 0 1 1.6 1.256c.426.526.75 1.154.952 1.863.203.709.324 1.478.324 2.268 0 .75-.101 1.458-.283 2.147-.203.689-.486 1.317-.871 1.843a4.309 4.309 0 0 1-1.479 1.276c-.607.324-1.296.486-2.106.486-.344 0-.709-.04-1.053-.101a4.484 4.484 0 0 1-1.013-.304 3.628 3.628 0 0 1-.891-.547 3.114 3.114 0 0 1-.689-.77h-.04v5.49h-2.43v-15.07h-.021Zm8.486 5.509c0-.486-.06-.972-.202-1.438a3.681 3.681 0 0 0-.587-1.236 3.256 3.256 0 0 0-.952-.87c-.385-.223-.831-.325-1.317-.325-1.012 0-1.782.345-2.309 1.054-.506.708-.769 1.66-.769 2.835 0 .567.06 1.073.202 1.54.142.465.324.87.608 1.215.263.344.587.607.972.81.385.202.81.303 1.316.303.568 0 1.013-.121 1.398-.344.385-.223.689-.526.952-.87a3.56 3.56 0 0 0 .526-1.236c.102-.486.162-.952.162-1.438Zm4.274-9.702h2.43v2.29h-2.43v-2.29Zm0 4.193h2.43v10.997h-2.43V58.37Zm4.597-4.193h2.431v15.19h-2.431v-15.19Zm9.844 15.494c-.871 0-1.661-.142-2.35-.445a5.34 5.34 0 0 1-1.742-1.195 5.214 5.214 0 0 1-1.073-1.843 7.2 7.2 0 0 1-.385-2.33c0-.83.122-1.6.385-2.308a5.398 5.398 0 0 1 1.073-1.843 4.865 4.865 0 0 1 1.742-1.195 6.15 6.15 0 0 1 2.35-.446c.87 0 1.66.142 2.349.446a5.037 5.037 0 0 1 1.742 1.195c.465.506.83 1.134 1.073 1.843.243.709.385 1.478.385 2.309 0 .85-.122 1.62-.385 2.329-.263.709-.608 1.316-1.073 1.843a4.856 4.856 0 0 1-1.742 1.195 6.072 6.072 0 0 1-2.349.445Zm0-1.924c.526 0 1.012-.121 1.397-.344.405-.223.709-.527.972-.891.263-.365.446-.79.567-1.236a5.534 5.534 0 0 0 0-2.815 3.627 3.627 0 0 0-.567-1.235 3.072 3.072 0 0 0-.972-.871 2.856 2.856 0 0 0-1.397-.345c-.527 0-1.013.122-1.398.345-.405.223-.709.526-.972.87-.263.365-.446.77-.567 1.236a5.495 5.495 0 0 0 0 2.815c.121.466.304.871.567 1.236.263.364.587.668.972.89.405.244.871.345 1.398.345Zm6.278-9.377h1.843v-3.322h2.43v3.302h2.188v1.802h-2.188v5.874c0 .263.021.465.041.668.02.182.081.344.142.466a.789.789 0 0 0 .344.283c.162.061.365.102.648.102.162 0 .344 0 .507-.02.162-.02.344-.041.506-.082v1.884c-.263.04-.527.06-.79.08-.263.041-.506.041-.79.041-.648 0-1.154-.06-1.539-.182a2.214 2.214 0 0 1-.912-.526 1.888 1.888 0 0 1-.445-.871 6.888 6.888 0 0 1-.142-1.215V60.17h-1.843v-1.843.04Z"/><path fill="#00B67A" d="M439.92 54.178h-11.119l-3.422-10.572-3.444 10.572-11.119-.02 8.993 6.541-3.443 10.573 8.992-6.542 8.993 6.541-3.423-10.572 8.992-6.521Z"/><path fill="#005128" d="m431.706 63.09-.77-2.39-5.549 4.03 6.319-1.64Z"/></g><path fill="url(#f)" fill-rule="evenodd" d="M586.078 14.238c.751-3.145-.777-6.08-2.369-8.46-1.753-2.62-4.682-4.942-7.953-5.779.593 2.969 2.322 5.53 3.988 7.939 1.654 2.393 3.74 4.816 6.334 6.3Zm-2.87.376c2.2 1.01 4.222 3.178 5.146 5.663-.583-2.492-.567-5.22-.008-7.558.49-2.054 1.207-4.956 3.554-5.935 1.703 2.737 2.385 6.463 1.387 9.252-.72 2.019-2.016 4.688-4.697 5.098-2.459.565-4.944-.749-6.906-1.833-2.183-1.206-4.32-3.123-5.617-5.402 2.384-1.2 5.097-.223 7.141.715Zm3.221 9.254c1.891 1.348 3.341 3.813 3.653 6.343.027-2.535.717-5.153 1.825-7.261 1.013-1.93 2.427-4.536 4.943-5.056.987 3.004.668 6.677-.93 9.108-1.209 1.842-3.08 4.148-5.803 4.086-2.485.127-4.631-1.57-6.32-2.987-1.817-1.523-3.455-3.75-4.145-6.157 2.538-.737 4.966.633 6.777 1.924Zm.916 9.485c1.545 1.656 2.374 4.336 2.097 6.816.618-2.489 1.906-4.901 3.479-6.734 1.458-1.7 3.43-3.946 6.033-4.01.246 3.155-.986 6.307-3.052 8.655-1.608 1.824-4.081 3.375-6.615 2.946-2.436-.297-4.298-2.363-5.506-4.034-1.298-1.793-2.555-4.188-2.607-6.7 2.597-.277 4.683 1.464 6.171 3.06Zm-1.592 9.073c1.231 2.449 1.466 5.362.515 7.927 1.402-2.64 3.453-4.773 5.624-6.745 1.974-1.793 4.817-3.68 7.678-3.322-.546 3.537-2.71 7.206-5.611 9.091-2.332 1.515-5.158 3.015-8.127 1.882-2.442-.861-3.994-3.321-4.947-5.579-1.009-2.388-1.681-5.141-1.21-7.754 2.678.24 4.9 2.159 6.078 4.5Zm-3.718 9.281a10.54 10.54 0 0 1-1.457 8.084c2.063-2.361 4.806-4.31 7.432-5.677 2.539-1.321 5.654-2.914 8.7-1.949-1.472 3.586-4.619 6.923-8.105 8.302-2.702 1.07-5.993 2.126-8.811.339-2.282-1.377-3.2-4.258-3.576-6.727-.402-2.669-.383-5.611.727-8.141 2.663.746 4.489 3.144 5.09 5.77Zm-13.108 10.025c-.338 2.574-.333 5.84 1.666 7.824 2.495 2.56 6.363 2.069 9.345 1.508 4.006-.753 8.515-3.48 10.934-7.114-2.948-1.627-6.558-.59-9.479.248l-.168.048c-3.26.935-6.735 2.443-9.642 4.504 2.32-2.094 4.011-5.166 4.096-8.265.078-2.772-1.123-5.739-3.711-7.063-1.811 2.372-2.659 5.418-3.041 8.31Zm-11.62 15.11c1.789 3.305 6.18 3.687 9.38 3.755 4.776.1 10.196-1.767 14.013-5.007-2.52-2.318-6.641-2.053-9.808-1.85l-.401.026c-3.942.248-8.084 1.094-11.879 2.505 3.277-1.594 6.442-4.395 7.358-7.683.769-2.764 1.019-5.946-1.561-8.172-2.688 2.102-4.569 5.03-5.946 7.903-1.158 2.417-2.611 5.683-1.181 8.477l.025.045Z" clip-rule="evenodd"/><defs><linearGradient id="a" x1="30.883" x2="31.307" y1=".204" y2="80.6" gradientUnits="userSpaceOnUse"><stop stop-color="#778EA1" stop-opacity=".4"/><stop offset="1" stop-color="#778EA1" stop-opacity=".1"/></linearGradient><linearGradient id="b" x1="69.789" x2="168.885" y1="40.3" y2="40.3" gradientUnits="userSpaceOnUse"><stop stop-color="#9F9FE5"/><stop offset=".363" stop-color="#4F4FBE"/><stop offset=".646" stop-color="#0071D2"/><stop offset="1" stop-color="#37A2FF"/></linearGradient><linearGradient id="f" x1="569.117" x2="568.693" y1=".204" y2="80.6" gradientUnits="userSpaceOnUse"><stop stop-color="#778EA1" stop-opacity=".4"/><stop offset="1" stop-color="#778EA1" stop-opacity=".1"/></linearGradient><clipPath id="c"><path fill="#fff" d="M252.299 3.8h159.918v30H252.299z"/></clipPath><clipPath id="e"><path fill="#fff" d="M406.299 41.8H532.7v32H406.299z"/></clipPath></defs></svg>