<svg xmlns="http://www.w3.org/2000/svg" width="295" height="108" fill="none"><path fill="url(#a)" fill-rule="evenodd" d="M14.165 27.938c-.752-3.145.777-6.08 2.369-8.46 1.753-2.62 4.681-4.942 7.952-5.779-.592 2.969-2.322 5.53-3.988 7.939-1.654 2.392-3.74 4.816-6.333 6.3Zm2.87.376c-2.2 1.01-4.223 3.178-5.147 5.663.583-2.492.568-5.22.008-7.558-.49-2.054-1.207-4.957-3.554-5.935-1.702 2.737-2.384 6.463-1.387 9.252.72 2.019 2.016 4.687 4.697 5.098 2.46.565 4.945-.749 6.907-1.833 2.183-1.206 4.32-3.123 5.617-5.402-2.384-1.2-5.098-.223-7.141.715Zm-3.222 9.254c-1.89 1.348-3.341 3.813-3.653 6.343-.027-2.535-.716-5.153-1.824-7.261-1.013-1.93-2.427-4.536-4.943-5.056-.988 3.003-.668 6.677.93 9.108 1.208 1.842 3.08 4.148 5.802 4.086 2.485.127 4.631-1.57 6.32-2.987 1.817-1.523 3.456-3.75 4.145-6.157-2.537-.737-4.966.633-6.777 1.924Zm-.915 9.485c-1.546 1.656-2.375 4.336-2.098 6.816-.618-2.489-1.906-4.901-3.478-6.734-1.459-1.7-3.43-3.946-6.034-4.01-.246 3.155.986 6.306 3.053 8.654 1.607 1.825 4.08 3.376 6.614 2.947 2.437-.297 4.298-2.364 5.507-4.034 1.297-1.793 2.554-4.188 2.607-6.7-2.598-.277-4.684 1.464-6.171 3.06Zm1.592 9.073c-1.232 2.449-1.466 5.362-.515 7.927-1.403-2.64-3.454-4.773-5.625-6.745-1.974-1.793-4.817-3.68-7.678-3.322.546 3.537 2.71 7.206 5.611 9.091 2.332 1.515 5.158 3.015 8.127 1.882 2.443-.862 3.994-3.322 4.947-5.579 1.01-2.388 1.681-5.141 1.21-7.754-2.678.24-4.9 2.159-6.077 4.5Zm3.718 9.281a10.541 10.541 0 0 0 1.456 8.084c-2.063-2.362-4.805-4.31-7.432-5.677-2.539-1.321-5.653-2.914-8.7-1.949 1.472 3.586 4.62 6.923 8.106 8.302 2.702 1.07 5.992 2.126 8.81.339 2.282-1.377 3.2-4.258 3.576-6.727.403-2.669.383-5.611-.726-8.141-2.663.746-4.49 3.144-5.09 5.77Zm13.107 10.025c.339 2.574.333 5.84-1.666 7.824-2.494 2.56-6.362 2.069-9.345 1.508-4.005-.753-8.514-3.48-10.934-7.114 2.948-1.627 6.559-.59 9.48.248l.168.048c3.26.935 6.734 2.443 9.642 4.504-2.32-2.094-4.012-5.166-4.097-8.265-.077-2.772 1.123-5.74 3.711-7.063 1.811 2.372 2.66 5.418 3.041 8.31Zm11.62 15.11c-1.789 3.305-6.18 3.687-9.38 3.754-4.776.101-10.195-1.766-14.013-5.006 2.52-2.318 6.642-2.053 9.808-1.85l.401.026c3.942.248 8.085 1.094 11.88 2.506-3.278-1.595-6.443-4.396-7.359-7.684-.769-2.764-1.019-5.946 1.561-8.172 2.689 2.102 4.57 5.03 5.946 7.903 1.158 2.417 2.611 5.683 1.182 8.477l-.025.045Z" clip-rule="evenodd"/><g clip-path="url(#b)"><path fill="#00B67A" d="M67.54 6.817A6.805 6.805 0 0 1 74.343.012H90.72a6.805 6.805 0 0 1 6.805 6.805V23.19a6.805 6.805 0 0 1-6.805 6.805H74.344a6.805 6.805 0 0 1-6.805-6.805V6.817Zm32.483 0a6.804 6.804 0 0 1 6.804-6.805h16.375a6.805 6.805 0 0 1 6.805 6.805V23.19a6.805 6.805 0 0 1-6.805 6.805h-16.375a6.804 6.804 0 0 1-6.804-6.805V6.817Zm32.483 0a6.805 6.805 0 0 1 6.805-6.805h16.374a6.805 6.805 0 0 1 6.805 6.805V23.19a6.804 6.804 0 0 1-6.805 6.805h-16.374a6.804 6.804 0 0 1-6.805-6.805V6.817Zm32.483 0a6.805 6.805 0 0 1 6.805-6.805h16.375a6.805 6.805 0 0 1 6.805 6.805V23.19a6.805 6.805 0 0 1-6.805 6.805h-16.375a6.805 6.805 0 0 1-6.805-6.805V6.817Z"/><mask id="c" width="31" height="30" x="197" y="0" maskUnits="userSpaceOnUse" style="mask-type:alpha"><path fill="#00B67A" d="M220.652.006h-16.374a6.805 6.805 0 0 0-6.805 6.805v16.374a6.805 6.805 0 0 0 6.805 6.805h16.374a6.805 6.805 0 0 0 6.805-6.805V6.81a6.805 6.805 0 0 0-6.805-6.805Z"/></mask><g mask="url(#c)"><path fill="#00B67A" d="M220.652.006h-16.374a6.805 6.805 0 0 0-6.805 6.805v16.374a6.805 6.805 0 0 0 6.805 6.805h16.374a6.805 6.805 0 0 0 6.805-6.805V6.81a6.805 6.805 0 0 0-6.805-6.805Z"/><path fill="#394C5E" d="M227.459-.001h-14.461v30.622h14.461V-.001Z"/></g><path fill="#fff" d="m82.53 20.218 4.56-1.156 1.905 5.872-6.465-4.716Zm10.495-7.59h-8.028L82.53 5.069l-2.468 7.559h-8.027l6.497 4.685-2.467 7.558 6.496-4.685 3.998-2.873 6.466-4.685Zm21.988 7.59 4.56-1.156 1.906 5.872-6.466-4.716Zm10.495-7.59h-8.027l-2.468-7.559-2.467 7.559h-8.027l6.496 4.685-2.467 7.558 6.496-4.685 3.998-2.873 6.466-4.685Zm21.988 7.59 4.561-1.156 1.905 5.872-6.466-4.716Zm10.495-7.59h-8.027l-2.468-7.559-2.467 7.559h-8.027l6.497 4.685-2.468 7.558 6.497-4.685 3.998-2.873 6.465-4.685Zm21.989 7.59 4.56-1.156 1.905 5.872-6.465-4.716Zm10.494-7.59h-8.027l-2.467-7.559-2.468 7.559h-8.027l6.497 4.685-2.468 7.558 6.497-4.685 3.998-2.873 6.465-4.685Zm21.989 7.59 4.56-1.156 1.905 5.872-6.465-4.716Zm10.495-7.59h-8.028l-2.467-7.559-2.468 7.559h-8.027l6.497 4.685-2.467 7.558 6.496-4.685 3.998-2.873 6.466-4.685Z"/></g><path fill="#5D778D" d="M70.964 61h-1.5V46.64h5.12c3.04 0 4.94 1.58 4.94 4.34 0 2.16-1.42 3.78-3.68 4.16l4.06 5.86h-1.8l-3.86-5.68h-3.28V61Zm0-13.1v6.16h3.5c2.2 0 3.56-1.08 3.56-3.08s-1.36-3.08-3.56-3.08h-3.5ZM88.304 61v-1.92c-.62 1.32-1.9 2.12-3.54 2.12-2.18 0-3.6-1.22-3.6-3.12 0-2.06 1.64-3.14 4.84-3.14.64 0 1.12.04 2.16.12v-.88c0-1.76-.94-2.8-2.54-2.8-1.72 0-2.8 1.06-2.82 2.78h-1.28c.06-2.34 1.68-3.9 4.08-3.9 2.46 0 3.9 1.44 3.9 3.88V61h-1.2Zm-5.8-2.96c0 1.28.98 2.14 2.46 2.14 1.96 0 3.2-1.28 3.2-3.26v-.94c-.9-.08-1.52-.1-2.1-.1-2.4 0-3.56.7-3.56 2.16Zm15.307 1.62v1.24c-.54.22-1 .3-1.52.3-1.74 0-3.08-.9-3.08-3.18v-6.38h-2.48v-1.18h2.48v-3.12h1.4v3.12h3.3v1.18h-3.3v6.08c0 1.64.8 2.2 1.96 2.2.44 0 .8-.08 1.24-.26Zm6.025 1.54c-2.96 0-4.92-2.22-4.92-5.56 0-3.08 2.04-5.38 4.84-5.38 3 0 4.96 2.42 4.72 5.8h-8.16c.12 2.5 1.44 4.04 3.5 4.04 1.76 0 2.98-.98 3.32-2.66h1.38c-.48 2.34-2.26 3.76-4.68 3.76Zm-.1-9.86c-1.9 0-3.24 1.46-3.42 3.76h6.7c-.12-2.36-1.34-3.76-3.28-3.76Zm6.078 4.38c0-3.24 1.8-5.46 4.64-5.46 1.58 0 2.92.9 3.62 2.4v-6.02h1.4V61h-1.3v-2.22c-.74 1.54-2.1 2.42-3.72 2.42-2.84 0-4.64-2.24-4.64-5.48Zm1.42 0c0 2.68 1.36 4.26 3.42 4.26 2.04 0 3.44-1.66 3.44-4.3 0-2.66-1.44-4.2-3.44-4.2-2.06 0-3.42 1.56-3.42 4.24Zm24.294 2.06h-1.82V61h-1.38v-3.22h-6.58v-.94l6.98-9.36h.98v9.08h1.82v1.22Zm-8.16-1.22h4.96v-6.8l-4.96 6.8Zm12.617 3.28c0 .72-.52 1.26-1.26 1.26-.72 0-1.26-.54-1.26-1.26 0-.76.54-1.28 1.26-1.28.74 0 1.26.52 1.26 1.28Zm6.422 1.36c-2.46 0-4.34-1.66-4.42-3.96h1.36c.12 1.66 1.36 2.72 3.06 2.72 2.06 0 3.24-1.28 3.24-3.18 0-1.7-1.28-3.06-3.2-3.06-1.3 0-2.3.56-2.96 1.6l-1.08-.32 1.18-7.52h6.72v1.22h-5.72l-.74 4.88c.82-.74 1.74-1.06 2.78-1.06 2.76 0 4.44 1.92 4.44 4.24 0 2.54-1.76 4.44-4.66 4.44Zm15.22 3.66h-1.32c-1.64-2.5-2.54-5.8-2.54-9.12 0-3.3.9-6.6 2.54-9.1h1.32c-1.66 2.5-2.46 5.8-2.46 9.1 0 3.32.8 6.62 2.46 9.12Zm5.974-17.56c2.7 0 4.7 1.94 4.7 4.42 0 1.66-.66 2.7-1.8 4.14l-4.06 5.14h-1.6l4.06-5.16c-.54.22-1.1.3-1.6.3-2.52 0-4.42-1.74-4.42-4.38 0-2.52 2-4.46 4.72-4.46Zm-.02 1.16c-1.9 0-3.26 1.38-3.26 3.26 0 2.02 1.36 3.36 3.26 3.36 1.86 0 3.28-1.16 3.28-3.32 0-1.92-1.42-3.3-3.28-3.3Zm10.787 12.72c-2.68 0-4.52-1.58-4.58-3.92h1.36c.08 1.7 1.34 2.78 3.22 2.78 1.94 0 3.12-1.06 3.12-2.76 0-1.62-1.32-2.66-3.4-2.66h-1.34v-1.16h1.3c1.66 0 2.82-1.06 2.82-2.58 0-1.46-1.08-2.46-2.62-2.46-1.6 0-2.66 1-2.74 2.56h-1.34c.06-2.12 1.82-3.7 4.12-3.7 2.4 0 4.02 1.46 4.02 3.54 0 1.4-.84 2.52-2.32 3.14 1.86.46 2.94 1.66 2.94 3.3 0 2.32-1.84 3.92-4.56 3.92Zm7.605 3.68h-1.32c1.64-2.5 2.46-5.8 2.46-9.12 0-3.3-.82-6.6-2.46-9.1h1.32c1.64 2.5 2.54 5.8 2.54 9.1 0 3.32-.9 6.62-2.54 9.12Zm14.154-3.66c-2.9 0-5-2.3-5-5.48 0-3.16 2.1-5.44 5-5.44 2.92 0 5.02 2.28 5.02 5.44 0 3.18-2.1 5.48-5.02 5.48Zm0-1.22c2.06 0 3.6-1.64 3.6-4.26 0-2.58-1.54-4.22-3.6-4.22-2.04 0-3.58 1.64-3.58 4.22 0 2.62 1.54 4.26 3.58 4.26Zm8.684-5.12V61h-1.4V50.46h1.3v1.98c.68-1.3 1.96-2.18 3.48-2.18 2.2 0 3.62 1.4 3.62 3.9V61h-1.4v-6.36c0-2.02-.92-3.16-2.64-3.16-1.64 0-2.96 1.42-2.96 3.38Z"/><g clip-path="url(#d)"><path fill="#394C5E" d="M104.005 85.377h12.294v2.289h-4.841v12.901h-2.653V87.666h-4.82l.02-2.289Zm11.767 4.192h2.268v2.127h.041a2.68 2.68 0 0 1 .425-.87c.203-.284.446-.548.75-.77.283-.244.607-.426.972-.568a2.83 2.83 0 0 1 1.073-.222c.284 0 .486.02.588.02.101.02.222.04.324.04v2.33c-.162-.041-.345-.061-.527-.082-.182-.02-.344-.04-.527-.04-.405 0-.789.08-1.154.243-.365.162-.668.405-.952.709a3.847 3.847 0 0 0-.648 1.174c-.162.466-.243 1.013-.243 1.62v5.226h-2.43l.04-10.937Zm17.58 10.998h-2.39v-1.54h-.04c-.304.568-.75.993-1.337 1.337a3.525 3.525 0 0 1-1.803.507c-1.438 0-2.491-.345-3.139-1.074-.648-.709-.972-1.802-.972-3.24v-6.988h2.43v6.745c0 .972.183 1.66.567 2.045.365.405.891.608 1.56.608.506 0 .931-.081 1.276-.243.344-.162.628-.365.83-.628.223-.263.365-.587.466-.952.101-.365.142-.77.142-1.195v-6.38h2.43v10.998h-.02Zm4.132-3.524c.081.709.344 1.195.81 1.498.466.284 1.033.426 1.681.426.223 0 .486-.02.769-.06.284-.041.567-.102.811-.203.263-.102.465-.243.627-.446.162-.203.243-.446.223-.75-.02-.303-.121-.566-.344-.769-.223-.203-.486-.344-.81-.486a7.03 7.03 0 0 0-1.134-.304c-.426-.08-.851-.182-1.297-.283a14.018 14.018 0 0 1-1.316-.365 3.775 3.775 0 0 1-1.134-.587 2.525 2.525 0 0 1-.79-.932c-.203-.385-.304-.83-.304-1.397 0-.608.142-1.094.446-1.5.283-.404.668-.728 1.113-.971a5.057 5.057 0 0 1 1.499-.527 8.585 8.585 0 0 1 1.56-.142c.567 0 1.114.061 1.62.183.506.121.992.303 1.397.587a3.2 3.2 0 0 1 1.033 1.053c.284.425.446.952.527 1.56h-2.532c-.121-.588-.384-.973-.79-1.175a3.26 3.26 0 0 0-1.438-.304c-.162 0-.384.02-.607.04-.243.041-.446.082-.668.163a1.584 1.584 0 0 0-.527.344.81.81 0 0 0-.223.587c0 .304.101.527.304.71.202.181.466.323.81.465.324.121.709.223 1.134.304.426.08.871.182 1.317.283.445.102.871.223 1.296.365.425.142.81.324 1.134.587.324.243.608.547.81.912.203.364.304.83.304 1.357 0 .648-.142 1.194-.446 1.66-.303.446-.688.83-1.154 1.114-.466.284-1.013.486-1.58.628-.587.122-1.154.203-1.721.203a7.25 7.25 0 0 1-1.924-.243 4.893 4.893 0 0 1-1.54-.71 3.4 3.4 0 0 1-1.012-1.194c-.243-.466-.385-1.033-.405-1.702h2.45v.02h.021Zm8-7.474h1.843v-3.321h2.43v3.301h2.187v1.803h-2.187v5.873c0 .263.02.466.041.668.02.183.081.345.141.466a.792.792 0 0 0 .345.284c.162.06.364.101.648.101.162 0 .344 0 .506-.02.162-.02.344-.04.506-.081v1.883c-.263.041-.526.061-.789.081-.264.041-.507.041-.79.041-.648 0-1.155-.061-1.54-.182a2.22 2.22 0 0 1-.911-.527 1.881 1.881 0 0 1-.446-.87c-.081-.345-.121-.77-.141-1.216v-6.481h-1.843v-1.843.04Zm8.162 0h2.288v1.5h.041c.344-.649.81-1.095 1.418-1.378a4.586 4.586 0 0 1 1.984-.425c.871 0 1.621.141 2.269.465a4.261 4.261 0 0 1 1.6 1.256 5.25 5.25 0 0 1 .952 1.863c.202.71.324 1.479.324 2.269 0 .75-.101 1.458-.284 2.147-.202.688-.486 1.316-.871 1.843a4.316 4.316 0 0 1-1.478 1.276c-.608.324-1.296.486-2.107.486-.344 0-.708-.041-1.053-.102a4.48 4.48 0 0 1-1.012-.303 3.62 3.62 0 0 1-.891-.547 3.074 3.074 0 0 1-.689-.77h-.041v5.489h-2.43V89.569h-.02Zm8.486 5.51c0-.487-.061-.973-.203-1.439a3.663 3.663 0 0 0-.587-1.235 3.231 3.231 0 0 0-.952-.871c-.385-.223-.83-.324-1.316-.324-1.013 0-1.783.344-2.309 1.053-.507.709-.77 1.66-.77 2.835 0 .568.061 1.074.203 1.54.141.465.324.87.607 1.215.264.344.588.608.972.81.385.203.811.304 1.317.304.567 0 1.013-.122 1.397-.344.385-.223.689-.527.952-.871a3.56 3.56 0 0 0 .527-1.236c.101-.486.162-.952.162-1.438Zm4.273-9.702h2.431v2.289h-2.431v-2.289Zm0 4.192h2.431v10.998h-2.431V89.569Zm4.598-4.192h2.43v15.19h-2.43v-15.19Zm9.843 15.494c-.871 0-1.661-.142-2.349-.446a5.332 5.332 0 0 1-1.742-1.195 5.2 5.2 0 0 1-1.074-1.843 7.201 7.201 0 0 1-.384-2.329c0-.83.121-1.6.384-2.309a5.383 5.383 0 0 1 1.074-1.843 4.857 4.857 0 0 1 1.742-1.195 6.144 6.144 0 0 1 2.349-.445c.871 0 1.661.141 2.349.445a5.037 5.037 0 0 1 1.742 1.195c.466.506.83 1.134 1.074 1.843.243.709.384 1.479.384 2.309 0 .85-.121 1.62-.384 2.33-.264.708-.608 1.316-1.074 1.842a4.85 4.85 0 0 1-1.742 1.195 6.06 6.06 0 0 1-2.349.446Zm0-1.924c.527 0 1.013-.122 1.397-.345.405-.223.709-.526.973-.89.263-.365.445-.79.567-1.236a5.54 5.54 0 0 0 0-2.815 3.645 3.645 0 0 0-.567-1.236 3.085 3.085 0 0 0-.973-.87 2.853 2.853 0 0 0-1.397-.345c-.527 0-1.013.121-1.398.344-.405.223-.708.527-.972.871-.263.365-.445.77-.567 1.236a5.54 5.54 0 0 0 0 2.815c.122.466.304.87.567 1.235.264.365.588.668.972.891.406.243.871.345 1.398.345Zm6.278-9.378h1.844v-3.321h2.43v3.301h2.187v1.803h-2.187v5.873c0 .263.02.466.04.668.021.183.081.345.142.466a.795.795 0 0 0 .344.284c.163.06.365.101.649.101.162 0 .344 0 .506-.02.162-.02.344-.04.506-.081v1.883c-.263.041-.526.061-.79.081-.263.041-.506.041-.789.041-.649 0-1.155-.061-1.54-.182a2.214 2.214 0 0 1-.911-.527 1.881 1.881 0 0 1-.446-.87c-.081-.345-.121-.77-.141-1.216v-6.481h-1.844v-1.843.04Z"/><path fill="#00B67A" d="M101.163 85.378h-11.12l-3.422-10.572-3.443 10.572-11.12-.02 8.993 6.541-3.443 10.572 8.993-6.541 8.992 6.541-3.423-10.572 8.993-6.521Z"/><path fill="#005128" d="m92.948 94.29-.77-2.39-5.549 4.03 6.32-1.64Z"/></g><path fill="url(#e)" fill-rule="evenodd" d="M280.835 27.938c.752-3.145-.777-6.08-2.369-8.46-1.753-2.62-4.681-4.942-7.952-5.779.592 2.969 2.322 5.53 3.988 7.939 1.654 2.392 3.74 4.816 6.333 6.3Zm-2.87.376c2.201 1.01 4.223 3.178 5.147 5.663-.583-2.492-.568-5.22-.008-7.558.49-2.054 1.207-4.957 3.554-5.935 1.702 2.737 2.384 6.463 1.387 9.252-.721 2.019-2.016 4.687-4.697 5.098-2.46.565-4.945-.749-6.907-1.833-2.183-1.206-4.319-3.123-5.617-5.402 2.384-1.2 5.098-.223 7.141.715Zm3.222 9.254c1.89 1.348 3.341 3.813 3.653 6.343.027-2.535.716-5.153 1.824-7.261 1.013-1.93 2.427-4.536 4.943-5.056.988 3.003.668 6.677-.929 9.108-1.209 1.842-3.08 4.148-5.803 4.086-2.485.127-4.631-1.57-6.32-2.987-1.817-1.523-3.456-3.75-4.145-6.157 2.537-.737 4.966.633 6.777 1.924Zm.915 9.485c1.546 1.656 2.375 4.336 2.098 6.816.618-2.489 1.906-4.901 3.478-6.734 1.459-1.7 3.431-3.946 6.034-4.01.246 3.155-.986 6.306-3.053 8.654-1.607 1.825-4.081 3.376-6.614 2.947-2.437-.297-4.298-2.364-5.507-4.034-1.297-1.793-2.554-4.188-2.607-6.7 2.598-.277 4.684 1.464 6.171 3.06Zm-1.592 9.073c1.232 2.449 1.466 5.362.515 7.927 1.403-2.64 3.454-4.773 5.625-6.745 1.974-1.793 4.817-3.68 7.678-3.322-.546 3.537-2.71 7.206-5.611 9.091-2.332 1.515-5.158 3.015-8.127 1.882-2.443-.862-3.994-3.322-4.947-5.579-1.009-2.388-1.681-5.141-1.211-7.754 2.679.24 4.901 2.159 6.078 4.5Zm-3.718 9.281a10.54 10.54 0 0 1-1.456 8.084c2.063-2.362 4.805-4.31 7.432-5.677 2.539-1.321 5.653-2.914 8.7-1.949-1.472 3.586-4.62 6.923-8.106 8.302-2.702 1.07-5.992 2.126-8.811.339-2.281-1.377-3.199-4.258-3.575-6.727-.403-2.669-.383-5.611.726-8.141 2.663.746 4.49 3.144 5.09 5.77Zm-13.107 10.025c-.339 2.574-.333 5.84 1.666 7.824 2.494 2.56 6.362 2.069 9.345 1.508 4.005-.753 8.514-3.48 10.934-7.114-2.948-1.627-6.559-.59-9.479.248l-.169.048c-3.26.935-6.734 2.443-9.642 4.504 2.321-2.094 4.012-5.166 4.097-8.265.077-2.772-1.123-5.74-3.711-7.063-1.811 2.372-2.659 5.418-3.041 8.31Zm-11.621 15.11c1.79 3.305 6.181 3.687 9.381 3.754 4.776.101 10.195-1.766 14.013-5.006-2.52-2.318-6.642-2.053-9.809-1.85l-.4.026c-3.942.248-8.085 1.094-11.879 2.506 3.277-1.595 6.442-4.396 7.358-7.684.769-2.764 1.019-5.946-1.561-8.172-2.689 2.102-4.569 5.03-5.946 7.903-1.159 2.417-2.611 5.683-1.182 8.477l.025.045Z" clip-rule="evenodd"/><defs><linearGradient id="a" x1="31.125" x2="31.549" y1="13.904" y2="94.3" gradientUnits="userSpaceOnUse"><stop stop-color="#778EA1" stop-opacity=".4"/><stop offset="1" stop-color="#778EA1" stop-opacity=".1"/></linearGradient><linearGradient id="e" x1="263.875" x2="263.451" y1="13.904" y2="94.3" gradientUnits="userSpaceOnUse"><stop stop-color="#778EA1" stop-opacity=".4"/><stop offset="1" stop-color="#778EA1" stop-opacity=".1"/></linearGradient><clipPath id="b"><path fill="#fff" d="M67.541 0H227.46v30H67.541z"/></clipPath><clipPath id="d"><path fill="#fff" d="M67.541 73h126.401v32h-126.4z"/></clipPath></defs></svg>